<svg width="234" height="46" viewBox="0 0 234 46" fill="none" xmlns="http://www.w3.org/2000/svg">
<path fill-rule="evenodd" clip-rule="evenodd" d="M20.3596 38.8842L14.443 33.0515L20.3596 27.2189L26.2762 33.0515L20.3596 38.8842ZM20.3596 4.75381V4.74504C22.0471 4.74504 23.7405 5.38531 25.0395 6.66293C26.3296 7.93471 26.9761 9.6041 26.9761 11.2735H26.985C26.985 12.9399 26.3385 14.6093 25.0455 15.884H25.0366L20.3596 20.4946L15.6797 15.884H15.6708C14.3867 14.6181 13.7431 12.9487 13.7431 11.2735C13.7431 9.60117 14.3896 7.92886 15.6768 6.65709L15.6827 6.66293C16.9728 5.39116 18.6662 4.75381 20.3596 4.75381ZM22.0649 43.9274L29.6868 36.4137L37.3087 43.9274L40.7193 40.5652L23.7702 23.8568L28.4471 19.2491L28.4412 19.2433C30.6714 17.0418 31.7865 14.1591 31.7865 11.2764H31.7954C31.7954 8.39079 30.6803 5.50518 28.4471 3.30369C26.2199 1.10805 23.2898 0.00877086 20.3596 0.00877086V0C17.4354 0 14.5083 1.10221 12.2751 3.30369V3.30954C10.0419 5.51103 8.92383 8.39372 8.92383 11.2735C8.92383 14.1503 10.0419 17.0359 12.281 19.2404L12.2751 19.2462L16.952 23.8568L0 40.5652L3.41057 43.9274L11.0325 36.4137L18.6543 43.9274L20.3596 45.6085L22.0649 43.9274ZM155.106 5.97168V38.9626H159.719V5.97168H155.106ZM60.5641 38.9626V12.1016H68.7916V7.80215H47.2344V12.1016H55.5044V38.9626H60.5641ZM75.2758 19.0404C74.4679 19.6789 73.816 20.6651 73.3199 21.9989V18.7424H68.7066V38.9626H73.3199V30.1083C73.3199 27.2136 73.653 25.1561 74.3191 23.9358C74.9853 22.7013 76.0837 22.084 77.6144 22.084C78.1813 22.084 78.6915 22.155 79.1451 22.2969C79.6128 22.4246 80.045 22.6303 80.4419 22.9141L82.1001 18.9978C81.4907 18.6998 80.8671 18.4728 80.2293 18.3167C79.6057 18.1606 78.9679 18.0826 78.3159 18.0826C77.1112 18.0826 76.0978 18.4018 75.2758 19.0404ZM103.7 38.9626H99.0866V36.3447C98.2645 37.5082 97.3008 38.3738 96.1953 38.9414C95.1039 39.5089 93.8496 39.7927 92.4323 39.7927C89.5835 39.7927 87.3371 38.8207 85.693 36.8768C84.0631 34.9186 83.2482 32.2438 83.2482 28.8525C83.2482 25.6315 84.0844 23.0347 85.7568 21.0624C87.4292 19.0758 89.6119 18.0826 92.3047 18.0826C93.9488 18.0826 95.352 18.4302 96.5141 19.1255C97.6905 19.8066 98.548 20.7928 99.0866 22.084V18.7849H103.7V38.9626ZM99.2141 28.8099C99.2141 26.7241 98.7251 25.0993 97.7472 23.9358C96.7834 22.7722 95.4299 22.1905 93.6866 22.1905C91.9433 22.1905 90.5685 22.7935 89.5623 23.9996C88.5701 25.1916 88.0741 26.8518 88.0741 28.9802C88.0741 31.1229 88.556 32.7759 89.5197 33.9395C90.4835 35.1031 91.8441 35.6848 93.6016 35.6848C95.2598 35.6848 96.6063 35.0534 97.6409 33.7905C98.6897 32.5276 99.2141 30.8674 99.2141 28.8099ZM106.591 18.7849L117.157 40.1759L127.745 18.7849H122.727L118.348 28.9376C118.078 29.5478 117.845 30.158 117.646 30.7681C117.462 31.3641 117.299 31.9671 117.157 32.5773C116.945 31.7117 116.739 30.9668 116.541 30.3424C116.342 29.7181 116.172 29.2498 116.03 28.9376L111.63 18.7849H106.591ZM150.067 29.5549H133.952C134.066 31.4421 134.626 32.9178 135.632 33.9821C136.638 35.0321 137.977 35.5571 139.65 35.5571C141.138 35.5571 142.378 35.2449 143.37 34.6206C144.362 33.9963 145.227 32.9888 145.964 31.5982L149.854 33.7692C148.721 35.7983 147.318 37.3095 145.645 38.3028C143.973 39.2961 142.01 39.7927 139.756 39.7927C136.525 39.7927 133.952 38.8066 132.039 36.8342C130.126 34.8618 129.169 32.2296 129.169 28.9376C129.169 25.7734 130.154 23.1766 132.124 21.1475C134.108 19.1042 136.652 18.0826 139.756 18.0826C143.002 18.0826 145.532 19.012 147.346 20.8708C149.16 22.7297 150.067 25.3335 150.067 28.6822V29.5549ZM145.284 26.4474C145.099 25 144.547 23.9003 143.625 23.1483C142.704 22.382 141.443 21.9989 139.841 21.9989C138.325 21.9989 137.106 22.3678 136.185 23.1057C135.263 23.8436 134.618 24.9574 134.25 26.4474H145.284ZM166.543 38.9626V5.97168H171.157V38.9626H166.543ZM178.215 8.03628C177.648 8.60386 177.364 9.27787 177.364 10.0583C177.364 10.8529 177.648 11.5411 178.215 12.1229C178.796 12.6905 179.483 12.9743 180.277 12.9743C181.085 12.9743 181.765 12.6976 182.318 12.1442C182.871 11.5766 183.147 10.8813 183.147 10.0583C183.147 9.2353 182.871 8.5542 182.318 8.01499C181.779 7.46159 181.099 7.1849 180.277 7.1849C179.483 7.1849 178.796 7.46869 178.215 8.03628ZM177.981 18.7849V38.9626H182.594V18.7849H177.981ZM208.17 38.9626H203.556V36.3447C202.734 37.5082 201.77 38.3738 200.665 38.9414C199.574 39.5089 198.319 39.7927 196.902 39.7927C194.053 39.7927 191.807 38.8207 190.163 36.8768C188.533 34.9186 187.718 32.2438 187.718 28.8525C187.718 25.6315 188.554 23.0347 190.227 21.0624C191.899 19.0758 194.082 18.0826 196.774 18.0826C198.419 18.0826 199.822 18.4302 200.984 19.1255C202.16 19.8066 203.018 20.7928 203.556 22.084V18.7849H208.17V38.9626ZM203.684 28.8099C203.684 26.7241 203.195 25.0993 202.217 23.9358C201.253 22.7722 199.9 22.1905 198.156 22.1905C196.413 22.1905 195.038 22.7935 194.032 23.9996C193.04 25.1916 192.544 26.8518 192.544 28.9802C192.544 31.1229 193.026 32.7759 193.989 33.9395C194.953 35.1031 196.314 35.6848 198.071 35.6848C199.73 35.6848 201.076 35.0534 202.111 33.7905C203.159 32.5276 203.684 30.8674 203.684 28.8099ZM214.547 18.7849V38.9626H219.161V29.7677C219.161 28.1076 219.225 26.9014 219.352 26.1494C219.494 25.3831 219.735 24.7588 220.075 24.2763C220.557 23.5527 221.216 22.9922 222.052 22.5949C222.903 22.1976 223.866 21.9989 224.943 21.9989C226.588 21.9989 227.728 22.4388 228.366 23.3185C229.018 24.1841 229.344 25.9436 229.344 28.5971V38.9626H234V26.7241C234 24.8794 233.922 23.5881 233.766 22.8503C233.61 22.1124 233.355 21.4668 233.001 20.9134C232.406 19.9769 231.576 19.2745 230.513 18.8062C229.465 18.3238 228.189 18.0826 226.687 18.0826C224.901 18.0826 223.384 18.4018 222.137 19.0404C220.89 19.6789 219.806 20.6935 218.884 22.084V18.7849H214.547Z" fill="white"/>
</svg>
